HIERARCHY
ROOT root
{
	OFFSET 0.000000 0.000000 0.000000
	CHANNELS 6 Xposition Yposition Zposition Zrotation Yrotation Xrotation
	JOINT lhip
	{
		OFFSET 0.058581 -0.082280 -0.017664
		CHANNELS 3 Zrotation Yrotation Xrotation
		JOINT lknee
		{
			OFFSET 0.043451 -0.386469 0.008037
			CHANNELS 3 Zrotation Yrotation Xrotation
			JOINT lankle
			{
				OFFSET -0.014790 -0.426874 -0.037428
				CHANNELS 3 Zrotation Yrotation Xrotation
				JOINT ltoe
				{
					OFFSET 0.041054 -0.060286 0.122042
					CHANNELS 3 Zrotation Yrotation Xrotation
					End Site
					{
						OFFSET 0.000000 0.000000 0.000000
					}
				}
			}
		}
	}
	JOINT rhip
	{
		OFFSET -0.060310 -0.090513 -0.013543
		CHANNELS 3 Zrotation Yrotation Xrotation
		JOINT rknee
		{
			OFFSET -0.043257 -0.383688 -0.004843
			CHANNELS 3 Zrotation Yrotation Xrotation
			JOINT rankle
			{
				OFFSET 0.019056 -0.420046 -0.034562
				CHANNELS 3 Zrotation Yrotation Xrotation
				JOINT rtoe
				{
					OFFSET -0.034840 -0.062106 0.130323
					CHANNELS 3 Zrotation Yrotation Xrotation
					End Site
					{
						OFFSET 0.000000 0.000000 0.000000
					}
				}
			}
		}
	}
	JOINT lowerback
	{
		OFFSET 0.004439 0.124404 -0.038385
		CHANNELS 3 Zrotation Yrotation Xrotation
		JOINT upperback
		{
			OFFSET 0.004488 0.137956 0.026820
			CHANNELS 3 Zrotation Yrotation Xrotation
			JOINT chest
			{
				OFFSET -0.002265 0.056032 0.002855
				CHANNELS 3 Zrotation Yrotation Xrotation
				JOINT lowerneck
				{
					OFFSET -0.013390 0.211636 -0.033468
					CHANNELS 3 Zrotation Yrotation Xrotation
					JOINT upperneck
					{
						OFFSET 0.010113 0.088937 0.050410
						CHANNELS 3 Zrotation Yrotation Xrotation
						End Site
						{
							OFFSET 0.000000 0.000000 0.000000
						}
					}
				}
				JOINT lclavicle
				{
					OFFSET 0.071702 0.114000 -0.018898
					CHANNELS 3 Zrotation Yrotation Xrotation
					JOINT lshoulder
					{
						OFFSET 0.122921 0.045205 -0.019046
						CHANNELS 3 Zrotation Yrotation Xrotation
						JOINT lelbow
						{
							OFFSET 0.255332 -0.015649 -0.022946
							CHANNELS 3 Zrotation Yrotation Xrotation
							JOINT lwrist
							{
								OFFSET 0.265709 0.012698 -0.007375
								CHANNELS 3 Zrotation Yrotation Xrotation
								End Site
								{
									OFFSET 0.000000 0.000000 0.000000
								}
							}
						}
					}
				}
				JOINT rclavicle
				{
					OFFSET -0.082954 0.112472 -0.023707
					CHANNELS 3 Zrotation Yrotation Xrotation
					JOINT rshoulder
					{
						OFFSET -0.113228 0.046853 -0.008472
						CHANNELS 3 Zrotation Yrotation Xrotation
						JOINT relbow
						{
							OFFSET -0.260127 -0.014369 -0.031269
							CHANNELS 3 Zrotation Yrotation Xrotation
							JOINT rwrist
							{
								OFFSET -0.269108 0.006794 -0.006027
								CHANNELS 3 Zrotation Yrotation Xrotation
								End Site
								{
									OFFSET 0.000000 0.000000 0.000000
								}
							}
						}
					}
				}
			}
		}
	}
}
MOTION
Frames: 13
Frame Time: 0.033333
-1.674414 0.569486 1.000059 88.549297 -1.234727 87.524863 1.480520 2.732825 7.256418 2.430279 -14.758859 -5.814905 2.879631 13.892313 -16.475859 0.000000 -0.000000 0.000000 -4.792245 -7.033365 4.743898 -3.330387 3.814266 -2.594988 3.831139 -13.789342 -8.203730 0.000000 -0.000000 0.000000 -1.648603 1.350804 -1.401882 -0.133108 -3.869492 9.452951 -0.697904 -0.478318 3.500281 -2.034169 0.326726 9.391101 3.158453 -1.205740 -11.663314 -2.811799 7.437284 -4.398976 -17.544710 -2.164304 -9.058307 11.522282 -20.275700 -13.120804 -11.839140 -12.951484 26.855150 -0.777418 -1.446127 -4.028922 15.050761 3.937705 -14.413733 -11.552193 23.239401 -12.747667 16.227626 12.167731 11.981705 
-1.674874 0.569034 0.999979 88.575143 -1.187361 87.561393 1.559605 2.688549 7.010774 2.341373 -14.855105 -5.496752 2.713482 14.041884 -16.649126 0.000000 -0.000000 0.000000 -4.671046 -6.905604 4.693553 -3.360452 3.901321 -2.618089 4.030366 -14.062487 -8.289907 0.000000 -0.000000 0.000000 -1.581997 1.200592 -1.394659 -0.343589 -3.745232 9.211989 -0.590512 -0.474236 3.675470 -2.049786 0.359419 8.270053 3.103092 -1.091567 -11.933116 -2.842305 7.360239 -4.360594 -17.596186 -1.938189 -9.088177 11.340651 -20.047430 -12.621385 -11.953817 -12.948152 27.155970 -0.704168 -1.462792 -4.029633 15.046808 3.778401 -14.536063 -11.483933 23.238566 -12.816042 16.345834 12.113872 12.413059 
-1.675369 0.568572 1.000035 88.618737 -1.188938 87.557286 1.580321 2.667507 6.828965 2.275998 -14.892490 -5.203768 2.732670 14.027420 -16.708870 0.000000 -0.000000 0.000000 -4.649360 -6.913824 4.661121 -3.333369 3.920621 -2.587251 3.981368 -14.107586 -8.333999 0.000000 -0.000000 0.000000 -1.603347 1.169983 -1.325178 -0.387676 -3.753231 9.181375 -0.575515 -0.504299 3.579451 -2.109519 0.524965 7.393773 3.083881 -1.150262 -12.284689 -2.848600 7.282959 -4.343141 -17.674408 -1.659405 -9.021671 11.215086 -19.790419 -12.294393 -12.294369 -12.864900 27.411212 -0.621968 -1.434168 -3.978291 15.012156 3.584353 -14.635074 -11.457452 23.178704 -12.844045 16.471219 12.136945 12.509746 
-1.675967 0.568040 1.000048 88.649293 -1.200301 87.588653 1.589502 2.680889 6.639953 2.235451 -14.953109 -4.989363 2.732087 14.052485 -16.746434 0.000000 -0.000000 0.000000 -4.634976 -6.892206 4.540120 -3.290388 3.971730 -2.471846 3.904912 -14.161885 -8.430593 0.000000 -0.000000 0.000000 -1.584481 1.129141 -1.383814 -0.434163 -3.755170 9.309762 -0.575996 -0.516565 3.442178 -2.227724 0.661666 6.423769 3.045933 -1.140096 -12.780938 -2.883664 7.125681 -4.304567 -17.728230 -1.273246 -9.030593 11.074786 -19.472219 -12.092992 -12.715629 -12.637356 27.580505 -0.552115 -1.378327 -3.900722 14.927981 3.314748 -14.796355 -11.385148 23.100602 -12.817645 16.623845 12.100276 12.689351 
-1.676387 0.567754 1.000043 88.686033 -1.200456 87.600526 1.608175 2.713699 6.540790 2.211593 -15.000650 -4.895458 2.719362 14.044287 -16.748197 0.000000 -0.000000 0.000000 -4.618203 -6.888901 4.439802 -3.264210 4.007256 -2.345910 3.852702 -14.204480 -8.508314 0.000000 -0.000000 0.000000 -1.544279 1.098741 -1.404838 -0.462380 -3.754585 9.371625 -0.575033 -0.529083 3.395988 -2.273823 0.737812 5.901255 2.995583 -1.121872 -13.081371 -2.912364 7.010578 -4.302655 -17.768202 -1.046918 -9.045866 11.047390 -19.288406 -12.066299 -12.817828 -12.477213 27.652800 -0.521296 -1.329948 -3.874305 14.871558 3.124183 -14.874518 -11.325155 23.076849 -12.836270 16.643399 12.070240 12.733615 
-1.677099 0.567448 1.000092 88.799694 -1.207904 87.596199 1.630042 2.744211 6.406615 2.165878 -15.086495 -4.756979 2.694601 14.003799 -16.747628 0.000000 -0.000000 0.000000 -4.603054 -6.908455 4.290851 -3.232334 4.043752 -2.113827 3.778012 -14.281996 -8.625105 0.000000 -0.000000 0.000000 -1.473098 1.050622 -1.346232 -0.496342 -3.782610 9.372912 -0.572114 -0.567855 3.328482 -2.334073 0.819695 5.351630 2.949142 -1.106263 -13.405909 -2.989620 6.864270 -4.293019 -17.776261 -0.774385 -9.044157 11.034323 -19.092054 -12.098672 -12.821642 -12.358284 27.635568 -0.487437 -1.251710 -3.821758 14.813878 2.898292 -14.931221 -11.299025 23.009058 -12.894595 16.563776 12.071058 12.658365 
-1.677883 0.567208 1.000258 88.964832 -1.228834 87.570306 1.636491 2.752782 6.271601 2.107289 -15.202690 -4.591657 2.669827 13.959750 -16.760751 0.000000 -0.000000 0.000000 -4.605970 -6.952675 4.127282 -3.193704 4.051655 -1.808553 3.715342 -14.370094 -8.769597 0.000000 -0.000000 0.000000 -1.401684 0.987222 -1.162763 -0.525042 -3.814660 9.230306 -0.566428 -0.601786 3.285499 -2.393557 0.811240 4.903853 2.951663 -1.063984 -13.691617 -3.062172 6.805451 -4.327287 -17.756278 -0.633214 -9.027447 10.986818 -18.977102 -12.113271 -12.796293 -12.399749 27.594133 -0.456812 -1.275499 -3.853055 14.771071 2.772617 -14.960609 -11.238390 22.894944 -12.877335 16.529622 12.080160 12.617214 
-1.678540 0.567050 1.000403 89.169260 -1.277361 87.537057 1.619677 2.726458 6.126198 2.026278 -15.356006 -4.399704 2.665870 13.946371 -16.767706 0.000000 -0.000000 0.000000 -4.642613 -6.988594 3.997413 -3.156997 4.055755 -1.510612 3.688971 -14.503794 -8.908409 0.000000 -0.000000 0.000000 -1.364190 0.914640 -0.926339 -0.537885 -3.859681 9.000038 -0.552250 -0.626666 3.250635 -2.445655 0.712276 4.506950 2.961833 -0.986761 -13.798250 -3.072529 6.821051 -4.305746 -17.781435 -0.636707 -9.013871 10.934749 -18.869685 -11.987803 -12.757851 -12.373842 27.450196 -0.464306 -1.371353 -3.859677 14.793878 2.740188 -14.972297 -11.200118 22.794604 -12.812287 16.505710 12.056392 12.516600 
-1.679118 0.566981 1.000591 89.434793 -1.338329 87.440616 1.590172 2.702923 6.019767 1.931734 -15.572049 -4.164758 2.683175 13.935334 -16.788546 0.000000 -0.000000 0.000000 -4.705865 -7.042653 3.985518 -3.124242 4.034930 -1.281238 3.609546 -14.642879 -9.032967 0.000000 -0.000000 0.000000 -1.376780 0.859350 -0.711535 -0.508998 -3.949971 8.888056 -0.509366 -0.678197 3.115878 -2.505150 0.598497 4.312275 2.951326 -0.905739 -13.760901 -3.103738 6.754028 -4.137763 -17.760965 -0.616043 -9.097669 10.887857 -18.780426 -11.920478 -12.680250 -12.455336 27.364683 -0.475402 -1.379662 -3.774667 14.786616 2.668943 -15.031673 -11.175451 22.699692 -12.739695 16.441525 12.110168 12.416163 
-1.679582 0.566910 1.000678 89.825604 -1.401995 87.314400 1.575368 2.692991 5.843168 1.800608 -15.907102 -3.791300 2.669969 13.904104 -16.841385 0.000000 -0.000000 0.000000 -4.758229 -7.129008 4.134838 -3.132204 3.961270 -1.243492 3.511265 -14.848139 -9.098468 0.000000 -0.000000 0.000000 -1.414929 0.805097 -0.574954 -0.436305 -4.097787 8.836528 -0.436800 -0.768962 2.970493 -2.569687 0.447028 4.198392 2.942788 -0.834986 -13.636717 -3.113013 6.618471 -3.874519 -17.732995 -0.602079 -9.260282 10.855326 -18.664581 -11.841688 -12.619551 -12.398028 27.258419 -0.514583 -1.350314 -3.650546 14.786470 2.589660 -15.171171 -11.164006 22.605677 -12.681855 16.345405 12.102804 12.328741 
-1.679743 0.566859 1.000703 90.144633 -1.450598 87.229031 1.561619 2.650627 5.717639 1.703823 -16.143382 -3.521273 2.653125 13.871747 -16.896086 0.000000 -0.000000 0.000000 -4.794755 -7.193479 4.355847 -3.162945 3.860036 -1.392290 3.456056 -14.996926 -9.078499 0.000000 -0.000000 0.000000 -1.466458 0.772798 -0.515008 -0.366592 -4.218402 8.772476 -0.372033 -0.824492 2.897803 -2.562653 0.288429 4.146892 2.973115 -0.794657 -13.482054 -3.120602 6.575362 -3.706347 -17.701709 -0.684292 -9.372363 10.810001 -18.691404 -11.747135 -12.581982 -12.440354 27.199964 -0.534889 -1.376595 -3.601241 14.805466 2.559628 -15.245585 -11.142799 22.595869 -12.639261 16.348028 12.121402 12.257540 
-1.679760 0.566802 1.000690 90.424755 -1.497029 87.159354 1.546690 2.607824 5.627580 1.639802 -16.353308 -3.336492 2.644183 13.852728 -16.927098 0.000000 -0.000000 0.000000 -4.838350 -7.260475 4.593066 -3.183803 3.762841 -1.592737 3.419133 -15.112532 -9.034778 0.000000 -0.000000 0.000000 -1.520292 0.752464 -0.467034 -0.285288 -4.325407 8.700881 -0.315477 -0.868638 2.750647 -2.574460 0.068547 4.166752 3.011568 -0.721363 -13.199944 -3.173536 6.592463 -3.453562 -17.649278 -0.802207 -9.507726 10.803851 -18.836896 -11.694968 -12.500167 -12.582648 27.076894 -0.518948 -1.454760 -3.486486 14.819859 2.617708 -15.339974 -11.143766 22.595599 -12.545773 16.321694 12.170885 12.242431 
-1.679724 0.566679 1.000629 90.630924 -1.524516 87.116539 1.556517 2.578128 5.578056 1.605059 -16.489754 -3.260129 2.639087 13.818096 -16.915348 0.000000 -0.000000 0.000000 -4.859930 -7.323000 4.776306 -3.197962 3.682333 -1.758447 3.380584 -15.190503 -8.994343 0.000000 -0.000000 0.000000 -1.566284 0.754994 -0.536080 -0.201628 -4.399330 8.710177 -0.273855 -0.900862 2.604513 -2.535709 -0.092244 4.216162 3.027349 -0.727066 -12.800621 -3.204064 6.597072 -3.191538 -17.629941 -0.903075 -9.646056 10.823948 -19.016180 -11.686672 -12.412088 -12.689846 27.026512 -0.480619 -1.485115 -3.347145 14.855064 2.656645 -15.454472 -11.171924 22.617024 -12.561094 16.248466 12.215130 12.221708 
